<svg width="123" height="20" viewBox="0 0 123 20" fill="none" xmlns="http://www.w3.org/2000/svg">
<g clip-path="url(#clip0_15_135)">
<path d="M20 0H0V20H20V0Z" fill="#1A70A5"/>
<path d="M14.5991 6.40675C14.869 6.7511 15.101 7.12651 15.2888 7.52675H9.99998L10.7578 8.64675H15.6799C15.7659 9.00823 15.8182 9.38268 15.8333 9.76675H11.5437L12.3068 10.8867H15.7709C15.712 11.2726 15.6153 11.6461 15.4846 12.0032C15.4842 12.0044 15.4837 12.0056 15.4833 12.0067H13.0874L13.8451 13.1267H11.4033V15.6636C11.4025 15.6639 11.4016 15.6641 11.4008 15.6643C10.952 15.7747 10.4829 15.8334 9.99998 15.8334C9.51515 15.8334 9.04413 15.7743 8.59372 15.663V13.1269L6.15482 13.1267L6.91262 12.0067H4.51672C4.51572 12.004 4.5147 12.0013 4.5137 11.9986C4.38388 11.6429 4.2877 11.271 4.22907 10.8867H7.69322L8.4563 9.76675H4.16667C4.18178 9.38268 4.2341 9.00823 4.32005 8.64675H9.2422L9.99998 7.52675H4.71125C4.89903 7.12651 5.13103 6.7511 5.4009 6.40675H14.5991ZM9.99998 4.16675C10.0771 4.16675 10.1539 4.16825 10.2302 4.17121C10.2771 4.17303 10.3239 4.17541 10.3705 4.17833C10.4229 4.1816 10.4752 4.18556 10.5272 4.19021C10.5734 4.19435 10.6194 4.19901 10.6653 4.20421C10.717 4.21008 10.7685 4.21665 10.8199 4.22385C10.8638 4.23003 10.9077 4.23666 10.9513 4.24381C11.0051 4.25261 11.0587 4.26216 11.1119 4.27243C11.1553 4.28078 11.1984 4.28965 11.2414 4.29895C11.2929 4.3101 11.3441 4.32188 11.3951 4.33436C11.4384 4.34496 11.4815 4.35606 11.5243 4.36763C12.2237 4.55615 12.871 4.8712 13.4403 5.28675H6.5597C7.12893 4.87121 7.77627 4.55615 8.4756 4.36763C8.5185 4.35606 8.56158 4.34496 8.60485 4.33436C8.65583 4.32188 8.70707 4.3101 8.75855 4.29895C8.80153 4.28965 8.84467 4.28078 8.888 4.27243C8.9413 4.26216 8.99482 4.25261 9.04862 4.24381C9.09228 4.23666 9.1361 4.23003 9.18008 4.22385C9.23142 4.21665 9.28293 4.21008 9.33468 4.20421C9.38055 4.19901 9.42655 4.19435 9.47268 4.19021C9.52477 4.18556 9.57703 4.1816 9.62948 4.17833C9.67608 4.17541 9.72283 4.17303 9.76973 4.17121C9.84608 4.16825 9.92287 4.16675 9.99998 4.16675Z" fill="white"/>
</g>
<path d="M31.024 7.904H28.624V6.512H29.6C30.0373 6.512 30.384 6.45867 30.64 6.352C30.9067 6.23467 31.0987 6.04267 31.216 5.776C31.3333 5.49867 31.392 5.12 31.392 4.64H32.752V16H31.024V7.904ZM39.7484 16.256C38.8204 16.256 38.0097 16.016 37.3164 15.536C36.623 15.056 36.0844 14.3733 35.7004 13.488C35.327 12.592 35.1404 11.5413 35.1404 10.336C35.1404 9.13067 35.327 8.08 35.7004 7.184C36.0844 6.288 36.623 5.6 37.3164 5.12C38.0097 4.62933 38.8204 4.384 39.7484 4.384C40.6977 4.384 41.519 4.624 42.2124 5.104C42.9057 5.584 43.439 6.272 43.8124 7.168C44.1857 8.064 44.3724 9.12 44.3724 10.336C44.3724 11.5413 44.1857 12.592 43.8124 13.488C43.439 14.3733 42.9057 15.056 42.2124 15.536C41.519 16.016 40.6977 16.256 39.7484 16.256ZM39.7484 14.672C40.3564 14.672 40.8684 14.5067 41.2844 14.176C41.711 13.8453 42.031 13.3547 42.2444 12.704C42.4684 12.0533 42.5804 11.264 42.5804 10.336C42.5804 9.39733 42.4684 8.60267 42.2444 7.952C42.031 7.30133 41.711 6.81067 41.2844 6.48C40.8684 6.13867 40.3564 5.968 39.7484 5.968C39.151 5.968 38.6444 6.13867 38.2284 6.48C37.8124 6.81067 37.4924 7.30133 37.2684 7.952C37.0444 8.60267 36.9324 9.39733 36.9324 10.336C36.9324 11.264 37.0444 12.0533 37.2684 12.704C37.4924 13.3547 37.8124 13.8453 38.2284 14.176C38.6444 14.5067 39.151 14.672 39.7484 14.672ZM45.9425 4.64H47.6385V11.696L51.4625 7.488H53.6065L50.2785 11.072L53.7345 16H51.7825L49.1425 12.128L47.6385 13.728V16H45.9425V4.64ZM61.6791 16.192C60.7938 16.192 60.0845 15.9893 59.5511 15.584C59.0285 15.168 58.7671 14.5973 58.7671 13.872C58.7671 13.1467 58.9858 12.576 59.4231 12.16C59.8605 11.744 60.5485 11.4453 61.4871 11.264L64.4151 10.704C64.4151 10.0427 64.2605 9.552 63.9511 9.232C63.6525 8.90133 63.1991 8.736 62.5911 8.736C62.0578 8.736 61.6311 8.85867 61.3111 9.104C60.9911 9.33867 60.7778 9.69067 60.6711 10.16L58.9111 10.048C59.0711 9.184 59.4711 8.512 60.1111 8.032C60.7618 7.54133 61.5885 7.296 62.5911 7.296C63.7325 7.296 64.6018 7.6 65.1991 8.208C65.8071 8.816 66.1111 9.68 66.1111 10.8V14.112C66.1111 14.3147 66.1485 14.4587 66.2231 14.544C66.2978 14.6187 66.4151 14.656 66.5751 14.656H66.8791V16C66.8045 16.0107 66.7085 16.0213 66.5911 16.032C66.4845 16.0427 66.3725 16.048 66.2551 16.048C65.6685 16.048 65.2311 15.9093 64.9431 15.632C64.6658 15.344 64.5271 14.864 64.5271 14.192L64.7031 14.272C64.5858 14.8267 64.2445 15.2853 63.6791 15.648C63.1138 16.0107 62.4471 16.192 61.6791 16.192ZM61.9671 14.848C62.4685 14.848 62.9005 14.752 63.2631 14.56C63.6365 14.3573 63.9191 14.08 64.1111 13.728C64.3138 13.376 64.4151 12.976 64.4151 12.528V11.984L61.9351 12.464C61.4338 12.56 61.0711 12.7093 60.8471 12.912C60.6338 13.1147 60.5271 13.3813 60.5271 13.712C60.5271 14.0747 60.6498 14.3573 60.8951 14.56C61.1511 14.752 61.5085 14.848 61.9671 14.848ZM68.3844 7.488H69.9364L70.0004 9.76L69.7924 9.648C69.931 8.85867 70.2457 8.272 70.7364 7.888C71.2377 7.49333 71.8457 7.296 72.5604 7.296C73.4777 7.296 74.187 7.59467 74.6884 8.192C75.1897 8.77867 75.4404 9.55733 75.4404 10.528V16H73.7444V11.04C73.7444 10.272 73.6164 9.696 73.3604 9.312C73.1044 8.91733 72.683 8.72 72.0964 8.72C71.4777 8.72 70.987 8.92267 70.6244 9.328C70.2617 9.73333 70.0804 10.304 70.0804 11.04V16H68.3844V7.488ZM79.9216 16.192C79.0363 16.192 78.327 15.9893 77.7936 15.584C77.271 15.168 77.0096 14.5973 77.0096 13.872C77.0096 13.1467 77.2283 12.576 77.6656 12.16C78.103 11.744 78.791 11.4453 79.7296 11.264L82.6576 10.704C82.6576 10.0427 82.503 9.552 82.1936 9.232C81.895 8.90133 81.4416 8.736 80.8336 8.736C80.3003 8.736 79.8736 8.85867 79.5536 9.104C79.2336 9.33867 79.0203 9.69067 78.9136 10.16L77.1536 10.048C77.3136 9.184 77.7136 8.512 78.3536 8.032C79.0043 7.54133 79.831 7.296 80.8336 7.296C81.975 7.296 82.8443 7.6 83.4416 8.208C84.0496 8.816 84.3536 9.68 84.3536 10.8V14.112C84.3536 14.3147 84.391 14.4587 84.4656 14.544C84.5403 14.6187 84.6576 14.656 84.8176 14.656H85.1216V16C85.047 16.0107 84.951 16.0213 84.8336 16.032C84.727 16.0427 84.615 16.048 84.4976 16.048C83.911 16.048 83.4736 15.9093 83.1856 15.632C82.9083 15.344 82.7696 14.864 82.7696 14.192L82.9456 14.272C82.8283 14.8267 82.487 15.2853 81.9216 15.648C81.3563 16.0107 80.6896 16.192 79.9216 16.192ZM80.2096 14.848C80.711 14.848 81.143 14.752 81.5056 14.56C81.879 14.3573 82.1616 14.08 82.3536 13.728C82.5563 13.376 82.6576 12.976 82.6576 12.528V11.984L80.1776 12.464C79.6763 12.56 79.3136 12.7093 79.0896 12.912C78.8763 13.1147 78.7696 13.3813 78.7696 13.712C78.7696 14.0747 78.8923 14.3573 79.1376 14.56C79.3936 14.752 79.751 14.848 80.2096 14.848ZM88.4051 16C87.8185 16 87.3598 15.856 87.0291 15.568C86.6985 15.2693 86.5331 14.8107 86.5331 14.192L86.5491 4.64H88.2451V14.032C88.2451 14.224 88.2931 14.368 88.3891 14.464C88.4958 14.56 88.6398 14.608 88.8211 14.608H89.5091V16H88.4051ZM91.1816 17.008H92.2056C92.483 17.008 92.691 16.9653 92.8296 16.88C92.979 16.7947 93.091 16.6507 93.1656 16.448L93.4376 15.744H92.9096L89.8376 7.488H91.6296L93.9656 14.176L96.2056 7.488H97.9976L94.6056 16.992C94.435 17.4827 94.179 17.84 93.8376 18.064C93.507 18.288 93.0483 18.4 92.4616 18.4H91.1816V17.008ZM99.097 14.48L104.249 8.88H99.273V7.488H106.185V9.008L101.017 14.608H106.313V16H99.097V14.48ZM111.574 16.192C110.763 16.192 110.054 16.0107 109.446 15.648C108.838 15.2853 108.368 14.768 108.038 14.096C107.707 13.424 107.542 12.64 107.542 11.744C107.542 10.8587 107.707 10.08 108.038 9.408C108.368 8.72533 108.832 8.20267 109.43 7.84C110.027 7.47733 110.726 7.296 111.526 7.296C112.304 7.296 112.987 7.47733 113.574 7.84C114.16 8.192 114.614 8.70933 114.934 9.392C115.264 10.064 115.43 10.8693 115.43 11.808V12.24H109.318C109.35 13.0507 109.563 13.6693 109.958 14.096C110.363 14.5227 110.907 14.736 111.59 14.736C112.091 14.736 112.507 14.624 112.838 14.4C113.168 14.176 113.403 13.856 113.542 13.44L115.302 13.552C115.078 14.3627 114.63 15.008 113.958 15.488C113.296 15.9573 112.502 16.192 111.574 16.192ZM113.622 10.96C113.568 10.224 113.355 9.66933 112.982 9.296C112.619 8.92267 112.134 8.736 111.526 8.736C110.918 8.736 110.416 8.928 110.022 9.312C109.638 9.696 109.403 10.2453 109.318 10.96H113.622ZM117.081 7.488H118.633L118.697 9.744L118.553 9.696C118.67 8.93867 118.905 8.384 119.257 8.032C119.609 7.66933 120.094 7.488 120.713 7.488H121.529V9.008H120.713C120.275 9.008 119.913 9.08267 119.625 9.232C119.347 9.37067 119.134 9.584 118.985 9.872C118.846 10.16 118.777 10.528 118.777 10.976V16H117.081V7.488Z" fill="white"/>
<defs>
<clipPath id="clip0_15_135">
<rect width="20" height="20" fill="white"/>
</clipPath>
</defs>
</svg>
