<svg width="280" height="280" viewBox="0 0 280 280" fill="none" xmlns="http://www.w3.org/2000/svg">
<rect x="1.5" y="1.5" width="277" height="277" rx="138.5" stroke="#24211D" stroke-opacity="0.05" stroke-width="3"/>
<g opacity="0.5">
<rect x="21.5" y="21.5" width="237" height="237" rx="118.5" stroke="#24211D" stroke-opacity="0.25" stroke-width="3"/>
<rect x="41.5" y="41.5" width="197" height="197" rx="98.5" stroke="#24211D" stroke-opacity="0.5" stroke-width="3"/>
<rect x="61.5" y="61.5" width="157" height="157" rx="78.5" stroke="#24211D" stroke-width="3"/>
<g clip-path="url(#clip0_17_149)">
<path d="M187.22 103.04C189.993 106.582 192.378 110.443 194.308 114.56H139.952L147.74 126.08H198.328C199.211 129.798 199.749 133.65 199.904 137.6H155.817L163.66 149.12H199.263C198.658 153.089 197.663 156.931 196.32 160.604C196.316 160.616 196.312 160.628 196.307 160.64H171.683L179.471 172.16H154.375V198.254C154.366 198.256 154.357 198.258 154.349 198.26C149.736 199.396 144.915 200 139.952 200C134.969 200 130.128 199.392 125.499 198.247V172.161L100.433 172.16L108.222 160.64H83.5977C83.5875 160.612 83.5769 160.584 83.5667 160.556C82.2324 156.897 81.244 153.072 80.6413 149.12H116.244L124.087 137.6H80C80.1554 133.65 80.6931 129.798 81.5764 126.08H132.164L139.952 114.56H85.5969C87.527 110.443 89.9114 106.582 92.6849 103.04H187.22ZM139.952 80C140.744 80 141.534 80.0155 142.318 80.0459C142.8 80.0646 143.281 80.0891 143.76 80.1191C144.299 80.1528 144.836 80.1935 145.371 80.2414C145.845 80.2839 146.318 80.3319 146.79 80.3853C147.321 80.4456 147.851 80.5132 148.378 80.5873C148.831 80.6509 149.281 80.7191 149.73 80.7927C150.282 80.8833 150.833 80.9814 151.38 81.087C151.826 81.1729 152.269 81.2642 152.71 81.3598C153.24 81.4744 153.766 81.5956 154.29 81.7241C154.735 81.8331 155.178 81.9473 155.619 82.0663C162.806 84.0052 169.46 87.2458 175.31 91.52H104.594C110.445 87.2459 117.098 84.0052 124.285 82.0663C124.726 81.9473 125.169 81.8331 125.614 81.7241C126.137 81.5956 126.664 81.4744 127.193 81.3598C127.635 81.2642 128.078 81.1729 128.524 81.087C129.071 80.9814 129.621 80.8833 130.174 80.7927C130.623 80.7191 131.073 80.6509 131.526 80.5873C132.053 80.5132 132.583 80.4456 133.114 80.3853C133.586 80.3319 134.059 80.2839 134.533 80.2414C135.068 80.1935 135.605 80.1528 136.144 80.1191C136.623 80.0891 137.104 80.0646 137.586 80.0459C138.37 80.0155 139.16 80 139.952 80Z" fill="#24211D"/>
</g>
</g>
<defs>
<clipPath id="clip0_17_149">
<rect width="120" height="120" fill="white" transform="translate(80 80)"/>
</clipPath>
</defs>
</svg>
