<svg width="22" height="22" viewBox="0 0 22 22" fill="none" xmlns="http://www.w3.org/2000/svg">
<path d="M11 0.95068C16.525 0.95068 21 5.42568 21 10.9507C20.9995 13.0459 20.3419 15.0883 19.1198 16.7902C17.8977 18.4922 16.1727 19.768 14.1875 20.4382C13.6875 20.5382 13.5 20.2257 13.5 19.9632C13.5 19.6257 13.5125 18.5507 13.5125 17.2132C13.5125 16.2757 13.2 15.6757 12.8375 15.3632C15.0625 15.1132 17.4 14.2632 17.4 10.4257C17.4 9.3257 17.0125 8.43818 16.375 7.73818C16.475 7.48818 16.825 6.46318 16.275 5.08818C16.275 5.08818 15.4375 4.81318 13.525 6.11318C12.725 5.88818 11.875 5.77568 11.025 5.77568C10.175 5.77568 9.325 5.88818 8.525 6.11318C6.6125 4.82568 5.775 5.08818 5.775 5.08818C5.225 6.46318 5.575 7.48818 5.675 7.73818C5.0375 8.43818 4.65 9.3382 4.65 10.4257C4.65 14.2507 6.975 15.1132 9.2 15.3632C8.9125 15.6132 8.65 16.0507 8.5625 16.7007C7.9875 16.9632 6.55 17.3882 5.65 15.8757C5.4625 15.5757 4.9 14.8382 4.1125 14.8507C3.275 14.8632 3.775 15.3257 4.125 15.5132C4.55 15.7507 5.0375 16.6382 5.15 16.9257C5.35 17.4882 6 18.5632 8.5125 18.1007C8.5125 18.9382 8.525 19.7257 8.525 19.9632C8.525 20.2257 8.3375 20.5257 7.8375 20.4382C5.8458 19.7752 4.11342 18.502 2.88611 16.799C1.65881 15.096 0.998901 13.0498 1 10.9507C1 5.42568 5.475 0.95068 11 0.95068Z" fill="white"/>
</svg>
